J_Kimmel_Cory_Monteith_720p_2011-01-24_TTL.avi                                                                     

                                                                                                                   
J_Kimmel_Delta_Spirit_SONG_ONLY_2011-01-25.mp3                                                                     

                                                                                                                   
J_Kimmel_The_Script_SONG_ONLY_2011-01-24.mp3                                                                       

                                                                                                                   
J_Kimmel_The_Script_SONG_ONLY_720p_2011-01-24_TTL.avi                                                              

                                                                                                                   
Tonight_Billy_Currington_SONG_ONLY_2011-01-27.mp3                                                                  

                                                                                                                   
Tonight_Billy_Currington_SONG_ONLY_720p_2011-01-27_TTL.avi                                                         

                                                                                                                   
Tonight_Lizz_Wright_SONG_ONLY_2011-01-24.mp3                                                                       

                                                                                                                   
Tonight_Lizz_Wright_SONG_ONLY_720p_2011-01-24_TTL.avi 									

															

******************************************************************************************************************	

															

															

											

J_Kimmel_The_Script_SONG_ONLY_720p_2011-01-24_TTL.avi
Format                           : AVI
Format/Info                      : Audio Video Interleave
File size                        : 117 MiB
Duration                         : 4mn 9s
Overall bit rate                 : 3 941 Kbps
Movie name                       : J_Kimmel_The_Script_SONG_ONLY_720p_2011-01-24_TTL.mpg
Director                         : created.with.SUPER(C).v2009.bld.35
Writing application              : SUPER(C)   

Video
ID                               : 0
Format                           : MPEG-4 Visual
Format profile                   : Simple@L3
Format settings, BVOP            : No
Format settings, QPel            : No
Format settings, GMC             : No warppoints
Format settings, Matrix          : Default (H.263)
Codec ID                         : XVID
Codec ID/Hint                    : XviD
Duration                         : 4mn 9s
Bit rate                         : 3 816 Kbps
Width                            : 1 280 pixels
Height                           : 720 pixels
Display aspect ratio             : 16:9
Frame rate                       : 29.970 fps
Color space                      : YUV
Chroma subsampling               : 4:2:0
Bit depth                        : 8 bits
Scan type                        : Progressive
Bits/(Pixel*Frame)               : 0.138
Stream size                      : 114 MiB (97%)
Writing library                  : XviD 1.1.2 (UTC 2006-11-01)

Audio
ID                               : 1
Format                           : MPEG Audio
Format version                   : Version 1
Format profile                   : Layer 3
Mode                             : Joint stereo
Codec ID                         : 55
Codec ID/Hint                    : MP3
Duration                         : 4mn 9s
Bit rate mode                    : Constant
Bit rate                         : 112 Kbps
Channel(s)                       : 2 channels
Sampling rate                    : 48.0 KHz
Stream size                      : 3.34 MiB (3%)
Alignment                        : Aligned on interleaves
Interleave, duration             : 24 ms (0.72 video frame)
Interleave, preload duration     : 24 ms

